<svg xmlns="http://www.w3.org/2000/svg" xmlns:xlink="http://www.w3.org/1999/xlink" version="1.1" width="256" height="256" viewBox="0 0 256 256" xml:space="preserve">

<defs>
</defs>
<g style="stroke: none; stroke-width: 0; stroke-dasharray: none; stroke-linecap: butt; stroke-linejoin: miter; stroke-miterlimit: 10; fill: none; fill-rule: nonzero; opacity: 1;" transform="translate(1.4065934065934016 1.4065934065934016) scale(2.81 2.81)" >
	<path d="M 74.557 9.106 h 6.855 c 4.744 0 8.589 3.845 8.589 8.589 v 4.504 H 0 v -4.504 c 0 -4.744 3.845 -8.589 8.589 -8.589 h 6.855 H 74.557 z" style="stroke: none; stroke-width: 1; stroke-dasharray: none; stroke-linecap: butt; stroke-linejoin: miter; stroke-miterlimit: 10; fill: rgb(0,0,0); fill-rule: nonzero; opacity: 1;" transform=" matrix(1 0 0 1 0 0) " stroke-linecap="round" />
	<path d="M 23.011 17.232 c -2.259 0 -4.091 -1.832 -4.091 -4.091 V 5.515 c 0 -2.259 1.832 -4.091 4.091 -4.091 s 4.091 1.832 4.091 4.091 v 7.626 C 27.102 15.4 25.271 17.232 23.011 17.232 z" style="stroke: none; stroke-width: 1; stroke-dasharray: none; stroke-linecap: butt; stroke-linejoin: miter; stroke-miterlimit: 10; fill: rgb(0,0,0); fill-rule: nonzero; opacity: 1;" transform=" matrix(1 0 0 1 0 0) " stroke-linecap="round" />
	<path d="M 66.989 17.232 c -2.259 0 -4.091 -1.832 -4.091 -4.091 V 5.515 c 0 -2.259 1.832 -4.091 4.091 -4.091 c 2.259 0 4.091 1.832 4.091 4.091 v 7.626 C 71.08 15.4 69.248 17.232 66.989 17.232 z" style="stroke: none; stroke-width: 1; stroke-dasharray: none; stroke-linecap: butt; stroke-linejoin: miter; stroke-miterlimit: 10; fill: rgb(0,0,0); fill-rule: nonzero; opacity: 1;" transform=" matrix(1 0 0 1 0 0) " stroke-linecap="round" />
	<path d="M 0 29.199 v 50.788 c 0 4.743 3.845 8.589 8.589 8.589 h 72.822 c 4.743 0 8.589 -3.845 8.589 -8.589 V 29.199 H 0 z M 65.705 48.431 L 43.219 74.816 c -0.778 0.912 -1.916 1.437 -3.114 1.437 c -1.199 0 -2.337 -0.525 -3.114 -1.437 L 26.34 62.318 c -1.466 -1.72 -1.259 -4.302 0.46 -5.768 c 1.721 -1.465 4.303 -1.257 5.767 0.46 l 7.538 8.845 l 19.374 -22.731 c 1.465 -1.72 4.047 -1.926 5.767 -0.46 C 66.966 44.13 67.171 46.712 65.705 48.431 z" style="stroke: none; stroke-width: 1; stroke-dasharray: none; stroke-linecap: butt; stroke-linejoin: miter; stroke-miterlimit: 10; fill: rgb(0,0,0); fill-rule: nonzero; opacity: 1;" transform=" matrix(1 0 0 1 0 0) " stroke-linecap="round" />
</g>
</svg>